<svg width="24" height="24" viewBox="0 0 24 24" fill="none" xmlns="http://www.w3.org/2000/svg">
<path fill-rule="evenodd" clip-rule="evenodd" d="M20.2206 8.34133C19.3826 6.45762 17.9233 4.91876 16.0866 3.98217C14.25 3.04558 12.1474 2.76806 10.1307 3.19603C8.1139 3.624 6.30526 4.73151 5.00727 6.3333C3.70929 7.93508 3.00069 9.934 3 11.9957C2.99829 14.1422 3.76406 16.2186 5.15905 17.85C6.55404 19.4814 8.48633 20.5603 10.6071 20.8919C12.7278 21.2236 14.8972 20.7861 16.7237 19.6585C18.5501 18.5308 19.9132 16.7873 20.5669 14.7428L19.1379 14.2899C18.589 15.9897 17.4516 17.4378 15.9302 18.3738C14.4088 19.3097 12.6034 19.6719 10.8387 19.3953C9.07409 19.1188 7.46606 18.2215 6.30397 16.865C5.14188 15.5085 4.50203 13.7819 4.49953 11.9957C4.49919 10.4027 5.00619 8.8511 5.94703 7.5657C6.88787 6.2803 8.21365 5.32796 9.73216 4.84675C11.2507 4.36553 12.883 4.38045 14.3924 4.88934C15.9019 5.39824 18.4943 7.49955 18.9943 8.99949L20.2206 8.34133Z" fill="#00B8BF"/>
<path fill-rule="evenodd" clip-rule="evenodd" d="M19.4925 8.49774L19.4925 3.99971L20.9918 3.99971V9.99708L14.9944 9.99708V8.49774H19.4925Z" fill="#00B8BF"/>
</svg>
