<svg width="40" height="40" viewBox="0 0 40 40" fill="none" xmlns="http://www.w3.org/2000/svg">
<circle cx="20" cy="20" r="19.5" stroke="white"/>
<path d="M12.1974 26H15.5526V15.8355H12.1974V26ZM13.875 11C12.7895 11 12 11.7895 12 12.7763C12 13.7632 12.6908 14.5526 13.875 14.5526C15.0592 14.5526 15.8487 13.7632 15.8487 12.7763C15.8487 11.7895 14.9605 11 13.875 11ZM27.7895 20.1776V26H24.4342V20.5724C24.4342 19.1908 23.9408 18.3026 22.6579 18.3026C21.6711 18.3026 21.1776 18.8947 20.9803 19.4868L20.8816 20.375V26H17.4276V15.8355H20.8816V17.3158C21.2763 16.625 22.0658 15.6382 23.8421 15.6382C26.1118 15.6382 27.7895 17.1184 27.7895 20.1776Z" fill="white"/>
</svg>
