<svg width="40" height="40" viewBox="0 0 40 40" fill="none" xmlns="http://www.w3.org/2000/svg">
<circle cx="20" cy="20" r="19.5" stroke="white"/>
<path d="M28 15.4171C27.4375 15.6984 26.875 15.8859 26.2188 15.8859C26.875 15.5109 27.3438 14.9484 27.625 14.1984C27.0218 14.5701 26.3539 14.8246 25.6562 14.9484C25.1886 14.4625 24.5751 14.1427 23.909 14.0377C23.2429 13.9327 22.5607 14.0482 21.9663 14.3667C21.3719 14.6851 20.8978 15.189 20.6162 15.8017C20.3346 16.4145 20.2608 17.1024 20.4062 17.7609C19.163 17.7217 17.9426 17.417 16.8269 16.8673C15.7112 16.3175 14.726 15.5353 13.9375 14.5734C13.5408 15.2515 13.417 16.0551 13.5911 16.8211C13.7652 17.5872 14.2242 18.2583 14.875 18.6984C14.4062 18.6984 13.9375 18.5109 13.4688 18.3234C13.4688 19.8234 14.5938 21.1359 16 21.3234C15.5375 21.4313 15.0563 21.4313 14.5938 21.3234C14.769 21.9451 15.1344 22.4963 15.6388 22.8998C16.1432 23.3033 16.7612 23.5389 17.4062 23.5734C16.1469 24.5272 14.5705 24.9633 13 24.7921C14.3499 25.6812 15.9204 26.1775 17.5361 26.2256C19.1518 26.2737 20.7491 25.8717 22.1495 25.0645C23.5499 24.2573 24.6984 23.0767 25.4667 21.6545C26.2349 20.2324 26.5927 18.6246 26.5 17.0109C27.0625 16.6359 27.625 16.0734 28 15.4171Z" fill="white"/>
</svg>
