<svg width="24" height="24" viewBox="0 0 24 24" fill="none" xmlns="http://www.w3.org/2000/svg">
<path fill-rule="evenodd" clip-rule="evenodd" d="M2.82291 2.73221H0V0.999992H4.31706L4.92905 5.12432H23.2725L19.9367 17.1674H4.9649L2.82291 2.73221ZM5.18609 6.85654L6.45904 15.4351H18.6191L20.9953 6.85654H5.18609Z" fill="#181818"/>
<path fill-rule="evenodd" clip-rule="evenodd" d="M8.66109 22.2678C9.29887 22.2678 9.8159 21.7507 9.8159 21.113C9.8159 20.4752 9.29887 19.9582 8.66109 19.9582C8.0233 19.9582 7.50628 20.4752 7.50628 21.113C7.50628 21.7507 8.0233 22.2678 8.66109 22.2678ZM8.66109 24C10.2556 24 11.5481 22.7074 11.5481 21.113C11.5481 19.5185 10.2556 18.2259 8.66109 18.2259C7.06663 18.2259 5.77406 19.5185 5.77406 21.113C5.77406 22.7074 7.06663 24 8.66109 24Z" fill="#181818"/>
<path fill-rule="evenodd" clip-rule="evenodd" d="M17.3222 22.2678C17.96 22.2678 18.477 21.7507 18.477 21.113C18.477 20.4752 17.96 19.9582 17.3222 19.9582C16.6844 19.9582 16.1674 20.4752 16.1674 21.113C16.1674 21.7507 16.6844 22.2678 17.3222 22.2678ZM17.3222 24C18.9166 24 20.2092 22.7074 20.2092 21.113C20.2092 19.5185 18.9166 18.2259 17.3222 18.2259C15.7277 18.2259 14.4351 19.5185 14.4351 21.113C14.4351 22.7074 15.7277 24 17.3222 24Z" fill="#181818"/>
</svg>
