<svg width="24" height="24" viewBox="0 0 24 24" fill="none" xmlns="http://www.w3.org/2000/svg">
<path fill-rule="evenodd" clip-rule="evenodd" d="M12.6949 1V3.36826C13.7787 3.47513 14.7088 3.77328 15.4961 4.24113C16.5014 4.83845 17.2169 5.6785 17.7189 6.62668C18.7031 8.48572 18.8921 10.8122 18.8921 12.7746C18.8921 14.5212 19.4155 15.918 19.9406 16.8806C20.203 17.3617 20.464 17.7307 20.6554 17.9753C20.7509 18.0974 20.8286 18.1878 20.8797 18.245C20.9053 18.2736 20.9241 18.2938 20.9352 18.3055L20.9455 18.3162L20.9464 18.3172L22.5307 19.9014H15.6747C15.6049 20.2072 15.492 20.5689 15.308 20.9368C15.0592 21.4344 14.6714 21.9603 14.0723 22.3597C13.4674 22.763 12.7026 23 11.7653 23C10.828 23 10.0632 22.763 9.45831 22.3597C8.85922 21.9603 8.47142 21.4344 8.22262 20.9368C8.03865 20.5689 7.92577 20.2072 7.85595 19.9014H1L2.58427 18.3172C2.58407 18.3174 2.58406 18.3174 2.58427 18.3172L2.58517 18.3162L2.59547 18.3055C2.60652 18.2938 2.62537 18.2736 2.65091 18.245C2.70203 18.1878 2.77972 18.0974 2.87527 17.9753C3.06669 17.7307 3.32767 17.3617 3.5901 16.8806C4.11512 15.918 4.63856 14.5212 4.63856 12.7746C4.63856 10.8122 4.82754 8.48572 5.81173 6.62668C6.31371 5.6785 7.02929 4.83845 8.03453 4.24113C8.82189 3.77328 9.75193 3.47513 10.8357 3.36826V1H12.6949ZM9.79499 19.9014C9.82162 19.9694 9.85165 20.0377 9.8855 20.1054C10.024 20.3825 10.2172 20.6312 10.4896 20.8128C10.7562 20.9905 11.1533 21.1408 11.7653 21.1408C12.3773 21.1408 12.7745 20.9905 13.0411 20.8128C13.3134 20.6312 13.5066 20.3825 13.6452 20.1054C13.679 20.0377 13.709 19.9694 13.7357 19.9014H9.79499ZM5.06889 18.0423C5.11983 17.9552 5.17105 17.8647 5.22224 17.7708C5.85919 16.6031 6.49772 14.9014 6.49772 12.7746C6.49772 10.8638 6.69607 8.92978 7.45483 7.49656C7.82433 6.79861 8.31914 6.23462 8.98424 5.83942C9.65061 5.44345 10.545 5.1831 11.7653 5.1831C12.9857 5.1831 13.88 5.44345 14.5464 5.83942C15.2115 6.23462 15.7063 6.79861 16.0758 7.49656C16.8346 8.92978 17.0329 10.8638 17.0329 12.7746C17.0329 14.9014 17.6715 16.6031 18.3084 17.7708C18.3596 17.8647 18.4108 17.9552 18.4618 18.0423H5.06889Z" fill="#181818"/>
</svg>
