<svg width="24" height="24" viewBox="0 0 24 24" fill="none" xmlns="http://www.w3.org/2000/svg">
<g clip-path="url(#clip0)">
<path d="M24 22.7476L17.2937 16.0057C18.8969 14.0713 19.6934 11.5936 19.5176 9.08731C19.3419 6.58101 18.2074 4.23873 16.3499 2.54698C14.4924 0.85523 12.0546 -0.0559627 9.5428 0.00266322C7.03103 0.0612891 4.63837 1.08523 2.8618 2.8618C1.08523 4.63837 0.0612891 7.03103 0.00266322 9.5428C-0.0559627 12.0546 0.85523 14.4924 2.54698 16.3499C4.23873 18.2074 6.58101 19.3419 9.08731 19.5176C11.5936 19.6934 14.0713 18.8969 16.0057 17.2937L22.7476 24L24 22.7476ZM1.79366 9.78794C1.79366 8.20683 2.26252 6.66121 3.14094 5.34656C4.01937 4.03191 5.2679 3.00726 6.72867 2.40219C8.18943 1.79712 9.79681 1.63881 11.3476 1.94727C12.8983 2.25573 14.3227 3.01711 15.4408 4.13513C16.5588 5.25315 17.3202 6.6776 17.6286 8.22834C17.9371 9.77908 17.7788 11.3865 17.1737 12.8472C16.5686 14.308 15.544 15.5565 14.2293 16.4349C12.9147 17.3134 11.3691 17.7822 9.78794 17.7822C7.66773 17.7822 5.63435 16.94 4.13513 15.4408C2.63592 13.9415 1.79366 11.9082 1.79366 9.78794Z" fill="#181818"/>
</g>
<defs>
<clipPath id="clip0">
<rect width="24" height="24" fill="white"/>
</clipPath>
</defs>
</svg>
