<svg width="24" height="24" viewBox="0 0 24 24" fill="none" xmlns="http://www.w3.org/2000/svg">
<path fill-rule="evenodd" clip-rule="evenodd" d="M20.7999 2V6.02912H22.7999V22.0109H0.999878V6.2L20.7999 2ZM18.9999 6.02912V4.22187L10.48 6.02912H18.9999ZM2.79988 7.82912H20.9999V10.1998C20.9813 10.1994 20.9628 10.1991 20.9442 10.1987C20.5291 10.1911 20.1121 10.1834 19.7642 10.1876C19.0879 10.1956 18.3862 10.2426 17.7564 10.4394C17.1003 10.6444 16.4959 11.0209 16.0764 11.685C15.6714 12.3264 15.4999 13.1405 15.4999 14.1109C15.4999 15.0814 15.6714 15.8955 16.0764 16.5368C16.4959 17.201 17.1003 17.5774 17.7564 17.7825C18.3862 17.9793 19.0879 18.0263 19.7642 18.0343C20.1121 18.0385 20.5291 18.0308 20.9442 18.0231C20.9628 18.0228 20.9813 18.0224 20.9999 18.0221V20.2109H2.79988V7.82912ZM20.9999 16.2214V12.0005C20.9492 11.9995 20.8991 11.9985 20.8496 11.9974C20.4876 11.99 20.1506 11.9831 19.7856 11.9874C19.1493 11.995 18.6635 12.0418 18.2933 12.1575C17.9494 12.2649 17.7414 12.4197 17.5983 12.6462C17.4409 12.8955 17.2999 13.3314 17.2999 14.1109C17.2999 14.8905 17.4409 15.3264 17.5983 15.5757C17.7414 15.8022 17.9494 15.9569 18.2933 16.0644C18.6635 16.1801 19.1493 16.2269 19.7856 16.2344C20.1506 16.2388 20.4876 16.2319 20.8496 16.2244C20.8991 16.2234 20.9492 16.2224 20.9999 16.2214Z" fill="#181818"/>
<path d="M19.8999 14.1109C19.8999 14.6632 19.4522 15.1109 18.8999 15.1109C18.3476 15.1109 17.8999 14.6632 17.8999 14.1109C17.8999 13.5586 18.3476 13.1109 18.8999 13.1109C19.4522 13.1109 19.8999 13.5586 19.8999 14.1109Z" fill="#181818"/>
</svg>
